<svg fill="none" height="120" viewBox="0 0 271 120" width="271" xmlns="http://www.w3.org/2000/svg" xmlns:xlink="http://www.w3.org/1999/xlink"><linearGradient id="a" gradientUnits="userSpaceOnUse" x1="156" x2="134.252" y1=".000003" y2="115.39"><stop offset="0" stop-color="#c61521"/><stop offset="1" stop-color="#f26522"/></linearGradient><path clip-rule="evenodd" d="m237.161 0h33.199l-61.799 99.5h-33.301zm-95.2 78.7c-10.1 0-17.3-8.4-16-18.7s10.5-18.7 20.6-18.7c5.8 0 10.7 2.8 13.5 7.1l18.5-19c-6.8-8.3-17.1-13.4-29.3-13.4-23.7 0-45.3 19.6-48.2 43.7-3.0004 24.1 13.8 43.7 37.5 43.7 12.2 0 23.8-5.2 32.7-13.5l-16.4-16c-3.6 3-8.2 4.8-12.9 4.8zm-43.6005-19.4c-.3 2.1-.4 4.2-.4 6.2 0 8.8 2.4005 17 7.0005 23.9l1.4 10.2h-25.8005l-1.5-11.3h-22.9l11-17.7h9.6l-1.7-12.6 21.2-34.1 3.7 27.5c-.7 2.6-1.3 5.2-1.6 7.9zm-35.9-39.5h33.3l-61.9 99.5h-33.299953zm108.8005 0h18.9l5.6 42-21.2 34.1001-6.9-51.4001 14.7-15.1c-3.4-4-7-7.2-11.1-9.6z" fill="url(#a)" fill-rule="evenodd"/></svg>