<?xml version="1.0" encoding="UTF-8"?> <svg xmlns="http://www.w3.org/2000/svg" width="90" height="48" viewBox="0 0 90 48" fill="none"><g clip-path="url(#clip0_341_57229)"><path d="M46.2055 22.6985L49.5827 25.5839L49.0371 28.928H54.6413L53.8744 33.7666H41.8105L44.6127 16.0547H56.4848L55.7179 20.8933H50.3054L50.0399 22.6985H46.2055Z" fill="#053038"></path><path d="M88.325 16.0107C89.2689 16.0107 90.0063 16.7802 90.0063 17.7272C90.0063 18.6742 89.2542 19.4584 88.3103 19.4584C87.3664 19.4584 86.6143 18.7038 86.6143 17.7272C86.6143 16.7506 87.3664 16.0107 88.3103 16.0107H88.325ZM88.325 16.2771C87.5729 16.2771 86.9535 16.9281 86.9535 17.7272C86.9535 18.5262 87.5729 19.1921 88.3398 19.1921C89.1067 19.1921 89.7113 18.5558 89.7113 17.742C89.7113 16.9282 89.1067 16.2771 88.3398 16.2771H88.325ZM88.0006 18.7334H87.6909V16.8098C87.8531 16.7802 88.0006 16.7654 88.2365 16.7654C88.5315 16.7654 88.7232 16.8246 88.8265 16.9134C88.9444 17.0021 89.0034 17.1353 89.0034 17.3129C89.0034 17.5644 88.8412 17.7124 88.6347 17.7864C88.797 17.8308 88.915 17.9935 88.9592 18.2747C89.0034 18.5706 89.0477 18.689 89.0772 18.7482H88.7527C88.7527 18.7482 88.6642 18.5114 88.62 18.2599C88.5757 18.0083 88.4578 17.9195 88.207 17.9195H88.0006V18.7482V18.7334ZM88.0006 17.668H88.2218C88.4725 17.668 88.6937 17.5792 88.6937 17.3425C88.6937 17.1797 88.5757 17.0021 88.2218 17.0021C88.1186 17.0021 88.0596 17.0021 88.0006 17.0169V17.668Z" fill="#053038"></path><path d="M7.86069 33.781H0L10.3384 13.2725H18.553L22.6087 33.781H14.748L14.4678 31.2211H8.86355L7.86069 33.781ZM13.9369 26.3529L13.6419 22.7277C13.5682 21.8547 13.5682 20.9669 13.5682 20.0938H13.3027L10.9578 26.3529H13.9369Z" fill="#053038"></path><path d="M26.5023 16.0693H33.0357C38.9644 16.0693 43.0938 18.6736 42.0615 25.1842C41.2356 30.4519 37.0029 33.7812 31.8263 33.7812H23.7002L26.5023 16.0693ZM30.9562 28.4691H31.3544C33.4781 28.4691 35.2774 27.4777 35.6461 25.1546C36.0443 22.6688 34.7759 21.6034 32.431 21.6034H32.0328L30.9562 28.4691Z" fill="#053038"></path><path d="M58.0183 27.4332L58.328 27.6996C59.3899 28.5874 60.7172 29.3125 62.2658 29.3125C62.9294 29.3125 64.0355 29.0609 64.1683 28.2619C64.301 27.4628 63.4309 27.3889 62.8409 27.2705L61.5284 27.0337C58.977 26.5898 57.0007 25.1101 57.4579 22.3431C58.1511 18.1408 62.546 15.7881 66.5869 15.7881C68.6959 15.7881 70.5689 16.2764 72.2059 17.3418L69.6398 21.8696C68.6074 21.115 67.3981 20.5231 65.9528 20.5231C65.3628 20.5231 64.4632 20.7303 64.3452 21.4701C64.242 22.1212 65.0531 22.2247 65.5546 22.3431L67.0294 22.6686C69.7872 23.2753 71.6013 24.7402 71.0998 27.744C70.3919 31.9759 66.0265 34.0623 62.015 34.0623C59.6849 34.0623 57.0745 33.4556 55.1572 32.4346L58.0478 27.4332H58.0183Z" fill="#053038"></path><path d="M76.0556 33.7812H69.2715L78.2088 16.0693H85.3026L88.8126 33.7812H82.0138L81.7778 31.5765H76.9257L76.0703 33.7812H76.0556ZM81.3059 27.3742L81.0404 24.252C80.9814 23.4974 80.9814 22.7279 80.9814 21.9733H80.7454L78.725 27.3742H81.3059Z" fill="#053038"></path><path d="M54.5672 28.4101L54.2575 25.4064L56.7499 23.6307L54.0805 23.6455L53.6528 21.3076L52.2223 23.6455L49.2432 23.6159V23.6455L51.3521 25.4064L50.0248 28.4101L52.6795 26.4569L54.5672 28.4101Z" fill="#3BC9DB"></path></g><defs><clipPath id="clip0_341_57229"><rect width="90" height="48" fill="white"></rect></clipPath></defs></svg> 