<svg xmlns="http://www.w3.org/2000/svg" viewBox="0 0 481.6713 188.84106" fill="#65299d">
  <g transform="translate(243.5882,-84.495133)">
    <path d="M 108.43198,95.607633 C 73.096879,89.286737 34.152859,88.765508 -7.2597238,91.334612 -69.791348,95.197529 -127.72981,108.60132 -170.41503,129.99024 c -38.58419,19.32781 -59.944,42.65612 -58.62109,64.01064 0.74084,11.84275 7.45332,22.40756 21.11375,32.8295 -22.99493,-14.76375 -35.66583,-31.50394 -35.66583,-47.91604 0,-22.62717 24.07708,-45.86817 66.06381,-63.74606 46.45025,-19.785543 108.513563,-30.673147 174.7705203,-30.673147 39.3356037,0 77.1948327,3.84175 111.1858497,11.1125"/>
    <path d="m 238.08311,178.91434 c 0,22.62981 -24.07709,45.87081 -66.06382,63.74871 -46.45024,19.77496 -108.52414,30.67314 -174.7731597,30.67314 -39.4229163,0 -77.3721033,-3.86556 -111.4213303,-11.14954 35.390665,6.35 74.133602,7.11465 115.6387886,4.54554 62.5316244,-3.8735 120.4806614,-17.49425 163.1579514,-38.89375 38.58419,-19.3331 59.95988,-42.66406 58.63167,-64.02916 -0.7276,-11.80836 -7.11464,-22.352 -20.71952,-32.77394 22.9235,14.78492 35.54942,31.49071 35.54942,47.879 z"/>
    <path d="m -152.33851,155.13885 c -13.1339,0 -22.80997,9.93537 -22.80997,22.80998 0,12.87197 9.67607,22.80661 22.80997,22.81721 8.46667,0 15.8192,-4.49243 19.52336,-11.23136 l -9.67589,-5.54023 c -1.73302,3.54277 -5.43689,5.70457 -9.9348,5.70457 -6.65162,0 -11.57552,-4.92659 -11.57552,-11.75019 0,-6.91355 4.9239,-11.83752 11.57552,-11.83752 4.40531,0 8.11973,2.24603 9.84746,5.78879 l 9.59115,-5.61413 c -3.54277,-6.64897 -10.88461,-11.14712 -19.35128,-11.14712 z m 43.26713,0 c -11.48555,0 -20.99458,9.93801 -20.99458,22.80998 0,12.87197 9.50374,22.80687 20.99458,22.80687 6.30767,0 10.9724,-2.41831 14.083896,-6.30504 v 5.09582 h 11.144023 v -43.1984 h -11.144023 v 5.0984 c -3.111496,-3.88677 -7.776226,-6.30763 -14.083896,-6.30763 z m 136.715687,0 c -13.133902,0 -22.8099768,9.93537 -22.8099768,22.80998 0,12.87197 9.6756818,22.80687 22.8042928,22.80687 8.464013,0 15.819711,-4.49242 19.523873,-11.23135 l -9.675895,-5.5299 c -1.73302,3.54277 -5.437399,5.70457 -9.935311,5.70457 -6.651618,0 -11.578105,-4.92659 -11.578105,-11.75019 0,-6.91355 4.926487,-11.83752 11.578105,-11.83752 4.405307,0 8.12025,2.24603 9.847978,5.78879 l 9.596313,-5.61413 C 43.452814,159.637 36.110966,155.13885 27.644307,155.13885 Z m 45.309896,0 c -12.699986,0 -22.807393,9.93537 -22.807393,22.80998 0,12.87197 10.107407,22.80687 22.807393,22.80687 12.699988,0 22.89421,-9.93225 22.89421,-22.80687 0,-12.87461 -10.194222,-22.80998 -22.89421,-22.80998 z m 51.677987,0 c -5.52979,0 -9.5908,2.15923 -12.00909,5.78931 v -4.58008 h -11.14454 v 43.20356 h 11.14454 v -24.27552 c 0,-6.48228 3.36001,-9.76581 8.1225,-9.76581 4.66461,0 7.25744,3.10622 7.25744,8.20208 v 25.83925 h 11.14454 v -24.27552 c 0,-6.48228 3.10863,-9.76581 8.03517,-9.76581 4.66459,0 7.25485,3.10622 7.25485,8.20208 v 25.83409 h 11.14712 v -26.60923 c 0,-10.80028 -6.47719,-17.7984 -16.33026,-17.7984 -5.87375,0 -10.19451,2.33357 -12.87209,6.22029 -2.41829,-3.97404 -6.39502,-6.22029 -11.75018,-6.22029 z m -156.093319,0.016 c -8.887345,0 -16.404166,4.92389 -16.404166,13.73715 0,15.20559 22.291145,11.75015 22.291145,18.05781 0,2.49502 -2.420755,3.70417 -5.960876,3.70417 -4.320642,0 -7.257522,-2.07447 -8.466667,-5.61723 l -9.678479,5.43739 c 3.111497,6.65427 9.503863,10.28154 18.145146,10.28154 9.244532,0 17.364315,-4.49269 17.364315,-13.82189 0,-15.89879 -22.291163,-11.92476 -22.312333,-18.30121 0,-2.33098 2.24617,-3.54294 5.011063,-3.54294 3.209392,0 5.617333,1.64311 6.91379,4.408 l 9.501229,-5.18314 c -3.357559,-5.96371 -9.405945,-9.15965 -16.404167,-9.15965 z m -21.534603,0.33073 c -5.442473,0 -10.887254,2.41826 -13.133565,8.292 v -7.42952 h -11.144539 v 43.18238 h 11.144539 v -20.6375 c 0,-9.07255 7.344488,-11.6625 13.133565,-10.97194 z m -54.559458,10.29239 c 6.91356,0 12.009084,4.91333 12.009084,12.17084 0,7.25751 -5.095524,12.18143 -12.009084,12.17083 -6.82625,0 -11.92227,-4.9239 -11.92227,-12.17083 0,-7.24693 5.09602,-12.17084 11.92227,-12.17084 z m 180.509393,0.24598 c 6.654265,0 11.750187,4.92664 11.750187,11.92486 0,6.99822 -5.095922,11.92175 -11.750187,11.92175 -6.566951,0 -11.662854,-4.92353 -11.662854,-11.92175 0,-6.99822 5.095903,-11.92486 11.662854,-11.92486 z m -76.1844968,23.24768 a 5.6858958,5.6858958 0 0 0 -1.2671061,0.12299 5.6806041,5.6806041 0 0 0 -4.3842285,6.73861 5.6858958,5.6858958 0 1 0 5.6513346,-6.8616 z"/>
  </g>
</svg>
